HIERARCHY
ROOT Hips
{
    OFFSET 0.000000 0.000000 0.000000
    CHANNELS 6 Xposition Yposition Zposition Zrotation Xrotation Yrotation
    JOINT Spine
    {
        OFFSET -0.000000 7.236184 0.000000
        CHANNELS 3 Zrotation Xrotation Yrotation
        JOINT Spine1
        {
            OFFSET -0.000000 20.420147 0.000000
            CHANNELS 3 Zrotation Xrotation Yrotation
            JOINT Neck
            {
                OFFSET -0.000000 20.336288 1.848754
                CHANNELS 3 Zrotation Xrotation Yrotation
                JOINT Head
                {
                    OFFSET -0.000000 12.354461 -1.764923
                    CHANNELS 3 Zrotation Xrotation Yrotation
                    End Site
                    {
                        OFFSET -0.000000 22.061537 0.000000
                    }
                }
            }
            JOINT LeftShoulder
            {
                OFFSET 3.573296 18.396038 -0.314103
                CHANNELS 3 Zrotation Xrotation Yrotation
                JOINT LeftArm
                {
                    OFFSET 10.880760 0.000000 0.000000
                    CHANNELS 3 Zrotation Xrotation Yrotation
                    JOINT LeftForeArm
                    {
                        OFFSET 27.185530 0.000000 0.000000
                        CHANNELS 3 Zrotation Xrotation Yrotation
                        JOINT LeftHand
                        {
                            OFFSET 27.825975 0.000000 0.000000
                            CHANNELS 3 Zrotation Xrotation Yrotation
                            End Site
                            {
                                OFFSET 13.236923 0.000000 0.000000
                            }
                        }
                    }
                }
            }
            JOINT RightShoulder
            {
                OFFSET -3.474926 18.396038 -0.314103
                CHANNELS 3 Zrotation Xrotation Yrotation
                JOINT RightArm
                {
                    OFFSET -10.880760 0.000000 0.000000
                    CHANNELS 3 Zrotation Xrotation Yrotation
                    JOINT RightForeArm
                    {
                        OFFSET -27.185530 0.000000 0.000000
                        CHANNELS 3 Zrotation Xrotation Yrotation
                        JOINT RightHand
                        {
                            OFFSET -27.825975 0.000000 0.000000
                            CHANNELS 3 Zrotation Xrotation Yrotation
                            End Site
                            {
                                OFFSET -13.236923 0.000000 0.000000
                            }
                        }
                    }
                }
            }
        }
    }
    JOINT LeftUpLeg
    {
        OFFSET 8.824615 0.000000 0.000000
        CHANNELS 3 Zrotation Xrotation Yrotation
        JOINT LeftLeg
        {
            OFFSET -0.000000 -35.111282 0.000000
            CHANNELS 3 Zrotation Xrotation Yrotation
            JOINT LeftFoot
            {
                OFFSET -0.000000 -42.324711 0.000000
                CHANNELS 3 Zrotation Xrotation Yrotation
                JOINT LeftToeBase
                {
                    OFFSET -0.000000 -5.735999 13.236923
                    CHANNELS 3 Zrotation Xrotation Yrotation
                    End Site
                    {
                        OFFSET -0.000000 0.000000 3.529846
                    }
                }
            }
        }
    }
    JOINT RightUpLeg
    {
        OFFSET -8.824615 0.000000 0.000000
        CHANNELS 3 Zrotation Xrotation Yrotation
        JOINT RightLeg
        {
            OFFSET -0.000000 -35.111282 0.000000
            CHANNELS 3 Zrotation Xrotation Yrotation
            JOINT RightFoot
            {
                OFFSET -0.000000 -42.324711 0.000000
                CHANNELS 3 Zrotation Xrotation Yrotation
                JOINT RightToeBase
                {
                    OFFSET -0.000000 -5.735999 13.236923
                    CHANNELS 3 Zrotation Xrotation Yrotation
                    End Site
                    {
                        OFFSET -0.000000 0.000000 3.529846
                    }
                }
            }
        }
    }
}
MOTION
Frames:    4
Frame Time:    0.008333
-27.249485    85.260811    97.409973    -8.813088    -6.666218    149.284744    -4.041944    -15.036156    2.361782    0.597515    8.829514    2.849314    1.652795    10.633389    1.837585    10.212421    -30.558273    5.920679    -0.284245    11.540728    5.137695    -49.794819    -10.155414    -13.308577    39.349014    -34.797539    -65.091705    47.575222    -2.556317    17.935448    11.162927    19.981230    -11.701519    45.557217    20.912325    30.479139    -4.254204    -27.141413    68.445541    -14.903430    -22.125412    -19.865753    -2.339259    -6.990904    -0.206652    -2.023677    6.528167    15.796123    -0.055404    -8.404251    -8.913455    0.217228    -0.203041    -0.240878    -10.472712    -26.123783    -15.115447    8.792025    29.337267    -7.470273    -2.802619    -1.992737    -20.585733    -0.307619    -7.243265    0.336272    
-27.212053    85.180153    97.308655    -8.996377    -6.311698    148.008377    -3.904392    -15.111497    2.307408    0.681743    8.682647    2.773748    1.563310    10.850637    2.350496    9.215513    -29.925924    6.010112    0.048616    11.444160    5.001693    -49.791965    -9.558393    -13.352151    40.571671    -35.921894    -67.934860    48.842518    -1.200494    17.857113    10.968698    19.729185    -11.484595    45.010204    20.571550    31.147192    -4.437050    -27.191736    71.785889    -14.528189    -21.972961    -19.636927    -2.623060    -6.894662    -0.111081    -1.968162    6.953555    17.051687    -0.337062    -8.630317    -9.160764    0.135530    -0.337300    -0.150322    -10.072335    -25.811203    -15.137097    8.661837    28.795471    -7.772902    -2.990910    -2.049999    -20.851526    -0.387567    -7.374816    0.423751    
-27.172045    85.100266    97.206856    -9.167679    -5.950592    146.736008    -3.757567    -15.175503    2.254173    0.767175    8.534750    2.697645    1.470501    11.075643    2.868251    8.217045    -29.310944    6.116347    0.358756    11.359508    4.840442    -49.722031    -8.914248    -13.387020    41.670959    -37.073223    -70.898766    49.958027    0.125172    17.540489    10.762962    19.478567    -11.255433    44.480919    20.243820    31.831352    -4.560938    -27.256659    75.156204    -14.127824    -21.869650    -19.289572    -2.893861    -6.812623    0.001470    -1.941390    7.404785    18.268654    -0.614380    -8.857493    -9.388491    0.054246    -0.473881    -0.060181    -9.694544    -25.483278    -15.150490    8.557377    28.262651    -8.076103    -3.206380    -2.150595    -21.095314    -0.460386    -7.411226    0.503396    
-27.129381    85.021736    97.105392    -9.328824    -5.586219    145.474075    -3.602721    -15.229762    2.201588    0.851628    8.387269    2.620972    1.375012    11.302204    3.388789    7.224924    -28.712631    6.239725    0.643605    11.291452    4.662850    -49.600922    -8.204340    -13.424066    42.612488    -38.217621    -73.896759    50.915188    1.391211    17.014589    10.548678    19.227951    -11.013114    43.970837    19.932961    32.526875    -4.623011    -27.316563    78.478706    -13.732289    -21.798676    -18.849991    -3.152126    -6.759500    0.121587    -1.941907    7.899552    19.442844    -0.886769    -9.083632    -9.592729    -0.026848    -0.615567    0.029793    -9.338344    -25.146633    -15.135586    8.465412    27.737270    -8.359801    -3.450012    -2.292767    -21.308842    -0.525028    -7.354940    0.574025    
